<svg width="24" height="25" viewBox="0 0 24 25" fill="none" xmlns="http://www.w3.org/2000/svg">
<path d="M16.5 6.125H13.5C12.9477 6.125 12.5 6.57272 12.5 7.125V10.125H16.5C16.6137 10.1225 16.7216 10.1754 16.7892 10.2669C16.8568 10.3584 16.8758 10.477 16.84 10.585L16.1 12.785C16.0318 12.9869 15.8431 13.1234 15.63 13.125H12.5V20.625C12.5 20.9011 12.2761 21.125 12 21.125H9.5C9.22386 21.125 9 20.9011 9 20.625V13.125H7.5C7.22386 13.125 7 12.9011 7 12.625V10.625C7 10.3489 7.22386 10.125 7.5 10.125H9V7.125C9 4.91586 10.7909 3.125 13 3.125H16.5C16.7761 3.125 17 3.34886 17 3.625V5.625C17 5.90114 16.7761 6.125 16.5 6.125Z" fill="#2A2C1F"/>
</svg>
