<svg width="24" height="25" viewBox="0 0 24 25" fill="none" xmlns="http://www.w3.org/2000/svg">
<path fill-rule="evenodd" clip-rule="evenodd" d="M16 3.125H8C5.23858 3.125 3 5.36358 3 8.125V16.125C3 18.8864 5.23858 21.125 8 21.125H16C18.7614 21.125 21 18.8864 21 16.125V8.125C21 5.36358 18.7614 3.125 16 3.125ZM19.25 16.125C19.2445 17.9176 17.7926 19.3695 16 19.375H8C6.20735 19.3695 4.75549 17.9176 4.75 16.125V8.125C4.75549 6.33235 6.20735 4.88049 8 4.875H16C17.7926 4.88049 19.2445 6.33235 19.25 8.125V16.125ZM16.75 8.375C17.3023 8.375 17.75 7.92728 17.75 7.375C17.75 6.82272 17.3023 6.375 16.75 6.375C16.1977 6.375 15.75 6.82272 15.75 7.375C15.75 7.92728 16.1977 8.375 16.75 8.375ZM12 7.625C9.51472 7.625 7.5 9.63972 7.5 12.125C7.5 14.6103 9.51472 16.625 12 16.625C14.4853 16.625 16.5 14.6103 16.5 12.125C16.5027 10.9307 16.0294 9.78457 15.1849 8.94008C14.3404 8.09559 13.1943 7.62234 12 7.625ZM9.25 12.125C9.25 13.6438 10.4812 14.875 12 14.875C13.5188 14.875 14.75 13.6438 14.75 12.125C14.75 10.6062 13.5188 9.375 12 9.375C10.4812 9.375 9.25 10.6062 9.25 12.125Z" fill="#2A2C1F"/>
</svg>
