<svg width="24" height="25" viewBox="0 0 24 25" fill="none" xmlns="http://www.w3.org/2000/svg">
<path fill-rule="evenodd" clip-rule="evenodd" d="M5 3.125H19C20.1046 3.125 21 4.02043 21 5.125V19.125C21 20.2296 20.1046 21.125 19 21.125H5C3.89543 21.125 3 20.2296 3 19.125V5.125C3 4.02043 3.89543 3.125 5 3.125ZM8 18.125C8.27614 18.125 8.5 17.9011 8.5 17.625V10.625C8.5 10.3489 8.27614 10.125 8 10.125H6.5C6.22386 10.125 6 10.3489 6 10.625V17.625C6 17.9011 6.22386 18.125 6.5 18.125H8ZM7.25 9.125C6.42157 9.125 5.75 8.45343 5.75 7.625C5.75 6.79657 6.42157 6.125 7.25 6.125C8.07843 6.125 8.75 6.79657 8.75 7.625C8.75 8.45343 8.07843 9.125 7.25 9.125ZM17.5 18.125C17.7761 18.125 18 17.9011 18 17.625V13.025C18.0325 11.4358 16.8576 10.0795 15.28 9.885C14.177 9.78425 13.1083 10.2994 12.5 11.225V10.625C12.5 10.3489 12.2761 10.125 12 10.125H10.5C10.2239 10.125 10 10.3489 10 10.625V17.625C10 17.9011 10.2239 18.125 10.5 18.125H12C12.2761 18.125 12.5 17.9011 12.5 17.625V13.875C12.5 13.0466 13.1716 12.375 14 12.375C14.8284 12.375 15.5 13.0466 15.5 13.875V17.625C15.5 17.9011 15.7239 18.125 16 18.125H17.5Z" fill="#2A2C1F"/>
</svg>
