<svg width="24" height="25" viewBox="0 0 24 25" fill="none" xmlns="http://www.w3.org/2000/svg">
<path d="M20.9727 6.8424C20.5083 7.46192 19.9469 8.00233 19.3102 8.44276C19.3102 8.60459 19.3102 8.76642 19.3102 8.93725C19.3153 11.8761 18.1414 14.6941 16.0517 16.7595C13.9619 18.8249 11.1311 19.9649 8.19393 19.9239C6.49587 19.9296 4.81955 19.5419 3.2963 18.7911C3.21416 18.7552 3.16119 18.674 3.1615 18.5843V18.4854C3.1615 18.3563 3.26611 18.2517 3.39515 18.2517C5.0643 18.1966 6.6739 17.6179 7.99622 16.5974C6.48541 16.5669 5.12607 15.6719 4.50048 14.2957C4.46889 14.2206 4.47872 14.1343 4.52645 14.0682C4.57417 14.0021 4.65288 13.9657 4.73413 13.9721C5.1933 14.0182 5.65706 13.9755 6.10008 13.8462C4.43227 13.5 3.17909 12.1154 2.99974 10.4207C2.99337 10.3394 3.0298 10.2607 3.09588 10.2129C3.16195 10.1652 3.24812 10.1553 3.32326 10.187C3.77082 10.3845 4.25397 10.4885 4.74312 10.4926C3.28172 9.53346 2.65049 7.70905 3.20643 6.05122C3.26382 5.89013 3.40169 5.77112 3.56938 5.73794C3.73706 5.70475 3.90984 5.76228 4.0242 5.88939C5.99627 7.98825 8.70592 9.23896 11.5818 9.37779C11.5082 9.08385 11.472 8.78176 11.474 8.47872C11.5009 6.88972 12.4841 5.47421 13.9633 4.89487C15.4424 4.31554 17.1248 4.68703 18.2229 5.83544C18.9713 5.69285 19.6949 5.44145 20.3706 5.08921C20.4201 5.05831 20.4829 5.05831 20.5324 5.08921C20.5633 5.13873 20.5633 5.20152 20.5324 5.25104C20.2051 6.00052 19.6522 6.62912 18.9508 7.04919C19.565 6.97796 20.1684 6.83307 20.7481 6.61764C20.7969 6.58442 20.861 6.58442 20.9098 6.61764C20.9507 6.63634 20.9813 6.67211 20.9934 6.71542C21.0055 6.75873 20.9979 6.80518 20.9727 6.8424Z" fill="#2A2C1F"/>
</svg>
